<?xml version="1.0" standalone="no"?>
<!DOCTYPE svg PUBLIC "-//W3C//DTD SVG 1.1//EN" "http://www.w3.org/Graphics/SVG/1.1/DTD/svg11.dtd">
<svg xmlns="http://www.w3.org/2000/svg" xmlns:xlink="http://www.w3.org/1999/xlink" id="Camada_2" data-name="Camada 2" viewBox="0 0 1000 1000" width="1000" height="1000">
  <defs>
    <style>
      .cls-1 {
        fill: none;
      }

      .cls-2 {
        fill: #303f59;
      }

      .cls-3 {
        clip-path: url(#clippath);
      }
    </style>
    <clipPath id="clippath">
      <rect class="cls-1" width="1000" height="1000"/>
    </clipPath>
  </defs>
  <g id="Camada_1-2" data-name="Camada 1">
    <g class="cls-3">
      <g>
        <rect class="cls-2" x="-960.8" y="-242.32" width="1439.25" height="6.17" transform="translate(98.53 -240.61) rotate(-45)"/>
        <rect class="cls-2" x="-947.4" y="-228.92" width="1439.25" height="6.17" transform="translate(92.98 -227.21) rotate(-45)"/>
        <rect class="cls-2" x="-934" y="-215.52" width="1439.25" height="6.17" transform="translate(87.43 -213.81) rotate(-45)"/>
        <rect class="cls-2" x="-920.61" y="-202.13" width="1439.25" height="6.17" transform="translate(81.88 -200.41) rotate(-45)"/>
        <rect class="cls-2" x="-907.21" y="-188.73" width="1439.25" height="6.17" transform="translate(76.33 -187.01) rotate(-45)"/>
        <rect class="cls-2" x="-893.81" y="-175.33" width="1439.25" height="6.17" transform="translate(70.78 -173.62) rotate(-45)"/>
        <rect class="cls-2" x="-880.41" y="-161.93" width="1439.25" height="6.17" transform="translate(65.23 -160.22) rotate(-45)"/>
        <rect class="cls-2" x="-867.01" y="-148.53" width="1439.25" height="6.17" transform="translate(59.68 -146.82) rotate(-45)"/>
        <rect class="cls-2" x="-853.61" y="-135.13" width="1439.25" height="6.17" transform="translate(54.13 -133.42) rotate(-45)"/>
        <rect class="cls-2" x="-840.21" y="-121.73" width="1439.25" height="6.17" transform="translate(48.58 -120.02) rotate(-45)"/>
        <rect class="cls-2" x="-826.81" y="-108.33" width="1439.25" height="6.17" transform="translate(43.03 -106.62) rotate(-45)"/>
        <rect class="cls-2" x="-813.41" y="-94.93" width="1439.25" height="6.17" transform="translate(37.48 -93.22) rotate(-45)"/>
        <rect class="cls-2" x="-800.02" y="-81.54" width="1439.25" height="6.17" transform="translate(31.93 -79.82) rotate(-45)"/>
        <rect class="cls-2" x="-786.62" y="-68.14" width="1439.25" height="6.17" transform="translate(26.38 -66.43) rotate(-45)"/>
        <rect class="cls-2" x="-773.22" y="-54.74" width="1439.25" height="6.17" transform="translate(20.83 -53.03) rotate(-45)"/>
        <rect class="cls-2" x="-759.82" y="-41.34" width="1439.25" height="6.17" transform="translate(15.28 -39.63) rotate(-45)"/>
        <rect class="cls-2" x="-746.42" y="-27.94" width="1439.25" height="6.17" transform="translate(9.73 -26.23) rotate(-45)"/>
        <rect class="cls-2" x="-733.02" y="-14.54" width="1439.25" height="6.17" transform="translate(4.18 -12.83) rotate(-45)"/>
        <rect class="cls-2" x="-719.62" y="-1.14" width="1439.25" height="6.17" transform="translate(-1.37 .57) rotate(-45)"/>
        <rect class="cls-2" x="-706.22" y="12.26" width="1439.25" height="6.17" transform="translate(-6.92 13.97) rotate(-45)"/>
        <rect class="cls-2" x="-692.83" y="25.65" width="1439.25" height="6.17" transform="translate(-12.47 27.37) rotate(-45)"/>
        <rect class="cls-2" x="-679.43" y="39.05" width="1439.25" height="6.17" transform="translate(-18.02 40.77) rotate(-45)"/>
        <rect class="cls-2" x="-666.03" y="52.45" width="1439.25" height="6.17" transform="translate(-23.57 54.16) rotate(-45)"/>
        <rect class="cls-2" x="-652.63" y="65.85" width="1439.25" height="6.17" transform="translate(-29.12 67.56) rotate(-45)"/>
        <rect class="cls-2" x="-639.23" y="79.25" width="1439.25" height="6.17" transform="translate(-34.67 80.96) rotate(-45)"/>
        <rect class="cls-2" x="-625.83" y="92.65" width="1439.25" height="6.17" transform="translate(-40.22 94.36) rotate(-45)"/>
        <rect class="cls-2" x="-612.43" y="106.05" width="1439.25" height="6.17" transform="translate(-45.77 107.76) rotate(-45)"/>
        <rect class="cls-2" x="-599.03" y="119.45" width="1439.25" height="6.17" transform="translate(-51.32 121.16) rotate(-45)"/>
        <rect class="cls-2" x="-585.63" y="132.85" width="1439.25" height="6.17" transform="translate(-56.87 134.56) rotate(-45)"/>
        <rect class="cls-2" x="-572.24" y="146.24" width="1439.25" height="6.17" transform="translate(-62.42 147.96) rotate(-45)"/>
        <rect class="cls-2" x="-558.84" y="159.64" width="1439.25" height="6.17" transform="translate(-67.97 161.35) rotate(-45)"/>
        <rect class="cls-2" x="-545.44" y="173.04" width="1439.25" height="6.17" transform="translate(-73.52 174.75) rotate(-45)"/>
        <rect class="cls-2" x="-532.04" y="186.44" width="1439.25" height="6.17" transform="translate(-79.07 188.15) rotate(-45)"/>
        <rect class="cls-2" x="-518.64" y="199.84" width="1439.25" height="6.17" transform="translate(-84.62 201.55) rotate(-45)"/>
        <rect class="cls-2" x="-505.24" y="213.24" width="1439.25" height="6.17" transform="translate(-90.17 214.95) rotate(-45)"/>
        <rect class="cls-2" x="-491.84" y="226.64" width="1439.25" height="6.17" transform="translate(-95.72 228.35) rotate(-45)"/>
        <rect class="cls-2" x="-478.44" y="240.04" width="1439.25" height="6.17" transform="translate(-101.27 241.75) rotate(-45)"/>
        <rect class="cls-2" x="-465.05" y="253.43" width="1439.25" height="6.17" transform="translate(-106.82 255.15) rotate(-45)"/>
        <rect class="cls-2" x="-451.65" y="266.83" width="1439.25" height="6.17" transform="translate(-112.37 268.55) rotate(-45)"/>
        <rect class="cls-2" x="-438.25" y="280.23" width="1439.25" height="6.17" transform="translate(-117.92 281.94) rotate(-45)"/>
        <rect class="cls-2" x="-424.85" y="293.63" width="1439.25" height="6.17" transform="translate(-123.47 295.34) rotate(-45)"/>
        <rect class="cls-2" x="-411.45" y="307.03" width="1439.25" height="6.17" transform="translate(-129.02 308.74) rotate(-45)"/>
        <rect class="cls-2" x="-398.05" y="320.43" width="1439.25" height="6.17" transform="translate(-134.57 322.14) rotate(-45)"/>
        <rect class="cls-2" x="-384.65" y="333.83" width="1439.25" height="6.17" transform="translate(-140.12 335.54) rotate(-45)"/>
        <rect class="cls-2" x="-371.25" y="347.23" width="1439.25" height="6.17" transform="translate(-145.67 348.94) rotate(-45)"/>
        <rect class="cls-2" x="-357.85" y="360.63" width="1439.25" height="6.17" transform="translate(-151.22 362.34) rotate(-45)"/>
        <rect class="cls-2" x="-344.46" y="374.02" width="1439.25" height="6.17" transform="translate(-156.77 375.74) rotate(-45)"/>
        <rect class="cls-2" x="-331.06" y="387.42" width="1439.25" height="6.17" transform="translate(-162.32 389.13) rotate(-45)"/>
        <rect class="cls-2" x="-317.66" y="400.82" width="1439.25" height="6.17" transform="translate(-167.87 402.53) rotate(-45)"/>
        <rect class="cls-2" x="-304.26" y="414.22" width="1439.25" height="6.17" transform="translate(-173.42 415.93) rotate(-45)"/>
        <rect class="cls-2" x="-290.86" y="427.62" width="1439.25" height="6.17" transform="translate(-178.97 429.33) rotate(-45)"/>
        <rect class="cls-2" x="-277.46" y="441.02" width="1439.25" height="6.17" transform="translate(-184.52 442.73) rotate(-45)"/>
        <rect class="cls-2" x="-264.06" y="454.42" width="1439.25" height="6.17" transform="translate(-190.07 456.13) rotate(-45)"/>
        <rect class="cls-2" x="-250.66" y="467.82" width="1439.25" height="6.17" transform="translate(-195.62 469.53) rotate(-45)"/>
        <rect class="cls-2" x="-237.27" y="481.21" width="1439.25" height="6.17" transform="translate(-201.17 482.93) rotate(-45)"/>
        <rect class="cls-2" x="-223.87" y="494.61" width="1439.25" height="6.17" transform="translate(-206.72 496.33) rotate(-45)"/>
        <rect class="cls-2" x="-210.47" y="508.01" width="1439.25" height="6.17" transform="translate(-212.27 509.72) rotate(-45)"/>
        <rect class="cls-2" x="-197.07" y="521.41" width="1439.25" height="6.17" transform="translate(-217.82 523.12) rotate(-45)"/>
        <rect class="cls-2" x="-183.67" y="534.81" width="1439.25" height="6.17" transform="translate(-223.37 536.52) rotate(-45)"/>
        <rect class="cls-2" x="-170.27" y="548.21" width="1439.25" height="6.17" transform="translate(-228.92 549.92) rotate(-45)"/>
        <rect class="cls-2" x="-156.87" y="561.61" width="1439.25" height="6.17" transform="translate(-234.47 563.32) rotate(-45)"/>
        <rect class="cls-2" x="-143.47" y="575.01" width="1439.25" height="6.17" transform="translate(-240.02 576.72) rotate(-45)"/>
        <rect class="cls-2" x="-130.07" y="588.41" width="1439.25" height="6.17" transform="translate(-245.57 590.12) rotate(-45)"/>
        <rect class="cls-2" x="-116.68" y="601.8" width="1439.25" height="6.17" transform="translate(-251.12 603.52) rotate(-45)"/>
        <rect class="cls-2" x="-103.28" y="615.2" width="1439.25" height="6.17" transform="translate(-256.67 616.92) rotate(-45)"/>
        <rect class="cls-2" x="-89.88" y="628.6" width="1439.25" height="6.17" transform="translate(-262.22 630.31) rotate(-45)"/>
        <rect class="cls-2" x="-76.48" y="642" width="1439.25" height="6.17" transform="translate(-267.77 643.71) rotate(-45)"/>
        <rect class="cls-2" x="-63.08" y="655.4" width="1439.25" height="6.17" transform="translate(-273.32 657.11) rotate(-45)"/>
        <rect class="cls-2" x="-49.68" y="668.8" width="1439.25" height="6.17" transform="translate(-278.87 670.51) rotate(-45)"/>
        <rect class="cls-2" x="-36.28" y="682.2" width="1439.25" height="6.17" transform="translate(-284.42 683.91) rotate(-45)"/>
        <rect class="cls-2" x="-22.88" y="695.6" width="1439.25" height="6.17" transform="translate(-289.97 697.31) rotate(-45)"/>
        <rect class="cls-2" x="-9.49" y="709" width="1439.25" height="6.17" transform="translate(-295.52 710.71) rotate(-45)"/>
        <rect class="cls-2" x="3.91" y="722.39" width="1439.25" height="6.17" transform="translate(-301.07 724.11) rotate(-45)"/>
        <rect class="cls-2" x="17.31" y="735.79" width="1439.25" height="6.17" transform="translate(-306.62 737.51) rotate(-45)"/>
        <rect class="cls-2" x="30.71" y="749.19" width="1439.25" height="6.17" transform="translate(-312.17 750.9) rotate(-45)"/>
        <rect class="cls-2" x="44.11" y="762.59" width="1439.25" height="6.17" transform="translate(-317.72 764.3) rotate(-45)"/>
        <rect class="cls-2" x="57.51" y="775.99" width="1439.25" height="6.17" transform="translate(-323.27 777.7) rotate(-45)"/>
        <rect class="cls-2" x="70.91" y="789.39" width="1439.25" height="6.17" transform="translate(-328.82 791.1) rotate(-45)"/>
        <rect class="cls-2" x="84.31" y="802.79" width="1439.25" height="6.17" transform="translate(-334.37 804.5) rotate(-45)"/>
        <rect class="cls-2" x="97.71" y="816.19" width="1439.25" height="6.17" transform="translate(-339.92 817.9) rotate(-45)"/>
        <rect class="cls-2" x="111.1" y="829.59" width="1439.25" height="6.17" transform="translate(-345.47 831.3) rotate(-45)"/>
        <rect class="cls-2" x="124.5" y="842.98" width="1439.25" height="6.17" transform="translate(-351.02 844.7) rotate(-45)"/>
        <rect class="cls-2" x="137.9" y="856.38" width="1439.25" height="6.17" transform="translate(-356.57 858.09) rotate(-45)"/>
        <rect class="cls-2" x="151.3" y="869.78" width="1439.25" height="6.17" transform="translate(-362.12 871.49) rotate(-45)"/>
        <rect class="cls-2" x="164.7" y="883.18" width="1439.25" height="6.17" transform="translate(-367.67 884.89) rotate(-45)"/>
        <rect class="cls-2" x="178.1" y="896.58" width="1439.25" height="6.17" transform="translate(-373.22 898.29) rotate(-45)"/>
        <rect class="cls-2" x="191.5" y="909.98" width="1439.25" height="6.17" transform="translate(-378.77 911.69) rotate(-45)"/>
        <rect class="cls-2" x="204.9" y="923.38" width="1439.25" height="6.17" transform="translate(-384.32 925.09) rotate(-45)"/>
        <rect class="cls-2" x="218.29" y="936.78" width="1439.25" height="6.17" transform="translate(-389.87 938.49) rotate(-45)"/>
        <rect class="cls-2" x="231.69" y="950.17" width="1439.25" height="6.17" transform="translate(-395.42 951.89) rotate(-45)"/>
        <rect class="cls-2" x="245.09" y="963.57" width="1439.25" height="6.17" transform="translate(-400.97 965.29) rotate(-45)"/>
        <rect class="cls-2" x="258.49" y="976.97" width="1439.25" height="6.17" transform="translate(-406.52 978.68) rotate(-45)"/>
        <rect class="cls-2" x="271.89" y="990.37" width="1439.25" height="6.17" transform="translate(-412.07 992.08) rotate(-45)"/>
        <rect class="cls-2" x="285.29" y="1003.77" width="1439.25" height="6.17" transform="translate(-417.62 1005.48) rotate(-45)"/>
        <rect class="cls-2" x="298.69" y="1017.17" width="1439.25" height="6.17" transform="translate(-423.17 1018.88) rotate(-45)"/>
        <rect class="cls-2" x="312.09" y="1030.57" width="1439.25" height="6.17" transform="translate(-428.72 1032.28) rotate(-45)"/>
        <rect class="cls-2" x="325.49" y="1043.97" width="1439.25" height="6.17" transform="translate(-434.27 1045.68) rotate(-45)"/>
        <rect class="cls-2" x="338.88" y="1057.37" width="1439.25" height="6.17" transform="translate(-439.82 1059.08) rotate(-45)"/>
        <rect class="cls-2" x="352.28" y="1070.76" width="1439.25" height="6.17" transform="translate(-445.37 1072.48) rotate(-45)"/>
        <rect class="cls-2" x="365.68" y="1084.16" width="1439.25" height="6.17" transform="translate(-450.92 1085.87) rotate(-45)"/>
        <rect class="cls-2" x="379.08" y="1097.56" width="1439.25" height="6.17" transform="translate(-456.47 1099.27) rotate(-45)"/>
        <rect class="cls-2" x="392.48" y="1110.96" width="1439.25" height="6.17" transform="translate(-462.02 1112.67) rotate(-45)"/>
        <rect class="cls-2" x="405.88" y="1124.36" width="1439.25" height="6.17" transform="translate(-467.57 1126.07) rotate(-45)"/>
        <rect class="cls-2" x="419.28" y="1137.76" width="1439.25" height="6.17" transform="translate(-473.12 1139.47) rotate(-45)"/>
        <rect class="cls-2" x="432.68" y="1151.16" width="1439.25" height="6.17" transform="translate(-478.67 1152.87) rotate(-45)"/>
        <rect class="cls-2" x="446.08" y="1164.56" width="1439.25" height="6.17" transform="translate(-484.22 1166.27) rotate(-45)"/>
        <rect class="cls-2" x="459.47" y="1177.95" width="1439.25" height="6.17" transform="translate(-489.77 1179.67) rotate(-45)"/>
        <rect class="cls-2" x="472.87" y="1191.35" width="1439.25" height="6.17" transform="translate(-495.32 1193.07) rotate(-45)"/>
        <rect class="cls-2" x="486.27" y="1204.75" width="1439.25" height="6.17" transform="translate(-500.87 1206.46) rotate(-45)"/>
        <rect class="cls-2" x="499.67" y="1218.15" width="1439.25" height="6.17" transform="translate(-506.42 1219.86) rotate(-45)"/>
        <rect class="cls-2" x="513.07" y="1231.55" width="1439.25" height="6.17" transform="translate(-511.97 1233.26) rotate(-45)"/>
        <rect class="cls-2" x="526.47" y="1244.95" width="1439.25" height="6.17" transform="translate(-517.52 1246.66) rotate(-45)"/>
        <rect class="cls-2" x="539.87" y="1258.35" width="1439.25" height="6.17" transform="translate(-523.07 1260.06) rotate(-45)"/>
        <rect class="cls-2" x="553.27" y="1271.75" width="1439.25" height="6.17" transform="translate(-528.62 1273.46) rotate(-45)"/>
        <rect class="cls-2" x="566.67" y="1285.15" width="1439.25" height="6.17" transform="translate(-534.17 1286.86) rotate(-45)"/>
        <rect class="cls-2" x="580.06" y="1298.54" width="1439.25" height="6.17" transform="translate(-539.72 1300.26) rotate(-45)"/>
        <rect class="cls-2" x="593.46" y="1311.94" width="1439.25" height="6.17" transform="translate(-545.27 1313.65) rotate(-45)"/>
        <rect class="cls-2" x="606.86" y="1325.34" width="1439.25" height="6.17" transform="translate(-550.82 1327.05) rotate(-45)"/>
        <rect class="cls-2" x="620.26" y="1338.74" width="1439.25" height="6.17" transform="translate(-556.37 1340.45) rotate(-45)"/>
        <rect class="cls-2" x="633.66" y="1352.14" width="1439.25" height="6.17" transform="translate(-561.92 1353.85) rotate(-45)"/>
        <rect class="cls-2" x="647.06" y="1365.54" width="1439.25" height="6.17" transform="translate(-567.47 1367.25) rotate(-45)"/>
        <rect class="cls-2" x="660.46" y="1378.94" width="1439.25" height="6.17" transform="translate(-573.02 1380.65) rotate(-45)"/>
        <rect class="cls-2" x="673.86" y="1392.34" width="1439.25" height="6.17" transform="translate(-578.57 1394.05) rotate(-45)"/>
        <rect class="cls-2" x="687.25" y="1405.73" width="1439.25" height="6.17" transform="translate(-584.12 1407.45) rotate(-45)"/>
        <rect class="cls-2" x="700.65" y="1419.13" width="1439.25" height="6.17" transform="translate(-589.67 1420.85) rotate(-45)"/>
        <rect class="cls-2" x="714.05" y="1432.53" width="1439.25" height="6.17" transform="translate(-595.22 1434.24) rotate(-45)"/>
        <rect class="cls-2" x="727.45" y="1445.93" width="1439.25" height="6.17" transform="translate(-600.77 1447.64) rotate(-45)"/>
        <rect class="cls-2" x="740.85" y="1459.33" width="1439.25" height="6.17" transform="translate(-606.32 1461.04) rotate(-45)"/>
        <rect class="cls-2" x="754.25" y="1472.73" width="1439.25" height="6.17" transform="translate(-611.87 1474.44) rotate(-45)"/>
        <rect class="cls-2" x="767.65" y="1486.13" width="1439.25" height="6.17" transform="translate(-617.42 1487.84) rotate(-45)"/>
        <rect class="cls-2" x="781.05" y="1499.53" width="1439.25" height="6.17" transform="translate(-622.97 1501.24) rotate(-45)"/>
      </g>
    </g>
  </g>
</svg>