<?xml version="1.0" standalone="no"?>
<!DOCTYPE svg PUBLIC "-//W3C//DTD SVG 1.1//EN" "http://www.w3.org/Graphics/SVG/1.1/DTD/svg11.dtd">
<svg xmlns="http://www.w3.org/2000/svg" id="Camada_2" viewBox="0 0 469.55 905.62" width="469.54998779296875" height="905.6199951171875">
  <defs>
    <style>
      .cls-1 {
        fill: #fff;
      }
    </style>
  </defs>
  <g id="Camada_1-2" data-name="Camada_1">
    <g>
      <path class="cls-1" d="M233.47,646.64l-89.32,244.85c-1.21,3.33-.77,6.73,1.26,9.64,2.03,2.9,5.08,4.49,8.62,4.49h161.49c3.56,0,6.62-1.61,8.65-4.53,2.03-2.93,2.45-6.35,1.2-9.69l-91.9-244.76h0Z"/>
      <path class="cls-1" d="M468.85,14.22l-237.45,632.4h0L.67,14.12C-.54,10.8-.1,7.39,1.93,4.49,3.96,1.59,7.01,0,10.55,0h448.44c3.56,0,6.62,1.6,8.65,4.53,2.03,2.93,2.45,6.36,1.2,9.69Z"/>
    </g>
  </g>
</svg>